<mxfile host="www.draw.io" modified="2019-11-24T08:48:47.328Z" agent="Mozilla/5.0 (Android 6.0; Mobile; rv:68.0) Gecko/68.0 Firefox/68.0" etag="EkgrBxwgW34V-QF76IyZ" version="12.2.9" type="github" pages="1">
  <diagram id="fWCjnC5ujuti9reKurIt" name="Page-1">
    <mxGraphModel dx="326" dy="397" grid="1" gridSize="10" guides="1" tooltips="1" connect="1" arrows="1" fold="1" page="1" pageScale="1" pageWidth="850" pageHeight="1100" math="0" shadow="0">
      <root>
        <mxCell id="0"/>
        <mxCell id="1" parent="0"/>
        <mxCell id="aM_uFACD209-y_EhRM4v-1" value="" style="rounded=0;whiteSpace=wrap;html=1;" vertex="1" parent="1">
          <mxGeometry x="30" width="120" height="50" as="geometry"/>
        </mxCell>
        <mxCell id="aM_uFACD209-y_EhRM4v-2" value="" style="rounded=0;whiteSpace=wrap;html=1;" vertex="1" parent="1">
          <mxGeometry x="30" y="190" width="120" height="60" as="geometry"/>
        </mxCell>
      </root>
    </mxGraphModel>
  </diagram>
</mxfile>
